<?xml version="1.0" standalone="no"?>
<!DOCTYPE svg PUBLIC "-//W3C//DTD SVG 20010904//EN"
 "http://www.w3.org/TR/2001/REC-SVG-20010904/DTD/svg10.dtd">
<svg version="1.0" xmlns="http://www.w3.org/2000/svg"
 width="464.000000pt" height="464.000000pt" viewBox="0 0 464.000000 464.000000"
 preserveAspectRatio="xMidYMid meet">
<metadata>
Created by potrace 1.11, written by Peter Selinger 2001-2013
</metadata>
<g transform="translate(0.000000,464.000000) scale(0.100000,-0.100000)"
fill="#000000" stroke="none">
<path d="M2339 4607 c-36 -12 -99 -47 -142 -77 -66 -48 -77 -59 -77 -85 0 -41
21 -78 52 -93 35 -17 48 -10 83 45 71 113 164 160 264 133 50 -13 86 -43 153
-127 l52 -66 -33 -59 c-37 -68 -63 -176 -52 -216 5 -15 18 -46 29 -69 24 -46
21 -54 -18 -46 -23 4 -32 0 -45 -21 -16 -25 -16 -27 9 -70 32 -55 107 -122
206 -184 l75 -47 100 0 c112 0 115 -2 130 -91 9 -58 -8 -60 -84 -13 -110 71
-175 60 -187 -30 -8 -63 -18 -79 -37 -62 -8 6 -18 24 -22 39 -10 39 -24 52
-56 52 -22 0 -42 -14 -85 -59 -62 -66 -74 -68 -149 -29 -48 24 -140 101 -162
135 -26 40 -54 154 -54 225 -1 112 31 153 161 213 72 33 80 40 80 72 0 25 -31
49 -73 57 -122 22 -288 141 -342 247 -18 35 -46 50 -97 55 -21 2 -65 13 -98
24 -33 11 -67 20 -77 20 -18 0 -119 35 -185 64 -36 15 -37 15 -67 -10 -17 -14
-31 -30 -31 -36 0 -5 -29 -54 -65 -108 -74 -113 -83 -132 -91 -203 -7 -71 -23
-109 -43 -105 -10 2 -33 45 -61 116 -50 126 -80 164 -155 198 -62 29 -178 49
-225 41 -34 -7 -96 -57 -125 -101 -8 -12 -29 -67 -48 -122 -24 -74 -50 -125
-93 -188 -101 -148 -122 -188 -154 -291 -17 -55 -44 -140 -59 -189 -20 -63
-26 -98 -21 -120 4 -18 41 -78 83 -135 43 -56 77 -107 77 -112 0 -6 -18 -31
-39 -57 -22 -26 -52 -71 -66 -100 -24 -48 -26 -61 -20 -119 3 -36 14 -95 24
-131 26 -96 106 -305 138 -360 42 -70 199 -224 264 -257 68 -35 93 -30 136 27
41 55 35 71 -28 63 -43 -6 -49 -4 -63 17 -62 94 -78 287 -28 331 9 8 42 22 74
31 65 18 103 57 114 112 4 20 12 38 19 40 20 8 126 -23 157 -46 38 -28 64 -25
106 11 30 26 40 30 71 25 48 -9 66 -9 136 -1 56 7 65 5 130 -28 39 -19 80 -38
93 -41 22 -7 28 -29 16 -60 -3 -9 -10 -13 -15 -10 -15 9 -48 -6 -54 -26 -3
-10 -19 -35 -35 -55 -55 -70 -28 -136 77 -191 171 -88 243 -136 292 -193 44
-51 58 -60 108 -73 85 -21 145 -14 274 33 122 45 175 76 226 132 53 58 121
164 134 207 7 22 17 39 23 37 6 -2 21 -32 33 -68 45 -126 51 -135 115 -169 53
-29 65 -31 113 -25 46 5 57 3 74 -14 25 -25 36 -81 24 -118 -12 -38 -5 -71 17
-83 13 -7 27 -4 54 15 55 37 85 15 64 -47 -16 -46 -50 -98 -104 -159 -68 -77
-72 -88 -90 -274 -10 -107 -11 -156 -3 -200 12 -64 0 -111 -52 -196 -27 -44
-49 -82 -49 -84 0 -22 -99 -151 -186 -245 -34 -36 -82 -90 -106 -120 -24 -30
-78 -98 -120 -150 -96 -120 -114 -136 -218 -197 -74 -44 -102 -54 -225 -81
-158 -34 -236 -43 -447 -47 -105 -3 -171 -9 -230 -24 -46 -11 -108 -23 -138
-25 -60 -6 -153 -16 -185 -21 -57 -8 -85 31 -87 120 -2 146 21 282 75 435 25
73 30 102 32 200 3 130 -12 234 -45 306 -38 86 -36 91 50 134 25 13 63 38 85
57 24 21 65 41 105 53 63 18 94 24 209 36 79 8 100 19 118 61 21 51 21 179 0
200 -36 37 -103 -19 -78 -65 15 -28 14 -67 -3 -81 -15 -12 -118 -36 -201 -46
-96 -12 -130 -27 -225 -104 -102 -82 -210 -117 -269 -87 -40 21 -45 46 -27
126 8 36 18 88 22 115 6 50 34 115 61 146 8 9 43 72 79 139 35 68 89 163 120
211 59 94 71 134 57 189 -7 25 -15 35 -29 35 -15 0 -20 -10 -26 -47 -9 -69
-47 -144 -110 -218 -69 -81 -102 -133 -122 -193 -9 -26 -27 -65 -41 -87 -36
-57 -91 -172 -109 -228 -25 -78 -28 -122 -11 -172 23 -68 61 -99 167 -135 99
-33 94 -27 83 -95 -3 -14 7 -51 21 -82 13 -31 27 -86 31 -121 5 -58 1 -76 -41
-203 -26 -76 -72 -185 -102 -241 -77 -145 -120 -345 -89 -418 31 -76 127 -106
315 -101 130 4 149 7 240 36 30 10 93 21 139 24 46 4 86 8 90 10 3 2 35 6 71
10 62 5 135 18 190 32 14 3 79 7 145 8 87 2 128 7 150 18 17 9 50 19 74 22 33
4 58 18 100 53 114 97 250 224 412 384 153 152 172 175 253 307 49 79 95 149
101 156 35 34 81 152 88 223 2 24 9 49 16 56 6 8 49 27 95 43 47 15 98 40 113
54 34 29 98 120 170 241 56 92 73 105 146 112 30 3 57 12 70 25 12 12 39 28
60 37 21 8 51 34 70 59 17 23 58 74 90 112 63 76 94 132 113 208 7 28 20 73
28 100 12 36 15 81 13 171 -3 110 -6 128 -31 179 -27 54 -43 71 -152 155 -66
50 -76 77 -109 287 -6 36 -32 113 -44 128 -5 6 -29 49 -54 96 -36 68 -47 99
-52 155 -8 84 -32 129 -88 172 -23 17 -51 40 -62 50 -11 10 -43 35 -72 57 -28
21 -56 48 -63 60 -7 14 -12 89 -14 202 -3 173 -4 182 -34 261 -48 125 -65 155
-139 230 -77 78 -111 93 -217 93 -57 0 -70 -3 -89 -24 -12 -12 -43 -32 -68
-43 -26 -12 -74 -49 -108 -82 -72 -74 -83 -72 -124 17 -35 74 -58 96 -126 116
-77 23 -173 20 -252 -7z m874 -78 c70 -37 137 -143 152 -239 3 -19 17 -84 31
-145 43 -180 31 -245 -50 -283 -25 -12 -55 -22 -65 -22 -33 0 -68 -17 -121
-59 -94 -75 -156 -63 -265 48 -98 100 -163 233 -152 312 7 53 99 217 153 273
86 91 250 150 317 115z m-1493 -124 c18 -11 11 -24 -21 -40 -64 -34 -115 -101
-159 -213 -56 -140 -77 -224 -73 -295 5 -105 51 -163 171 -217 86 -39 94 -43
105 -62 15 -22 0 -68 -26 -77 -52 -19 -286 -29 -402 -16 -58 6 -73 4 -84 -8
-17 -21 0 -51 36 -65 79 -31 132 -33 331 -14 90 9 111 15 158 44 74 44 88 62
90 111 3 80 -62 149 -182 191 -63 22 -83 38 -95 74 -17 53 -12 130 16 227 50
171 99 245 180 266 59 16 95 31 95 38 0 3 9 12 20 19 17 11 31 10 81 -4 62
-17 75 -28 131 -104 20 -27 72 -71 130 -110 54 -36 97 -71 98 -79 0 -8 -21
-36 -46 -63 -74 -79 -84 -118 -70 -278 11 -130 28 -172 103 -251 36 -37 62
-72 59 -77 -2 -4 -27 -24 -55 -42 -28 -19 -58 -50 -66 -68 -26 -53 -29 -132
-7 -194 18 -51 18 -55 2 -93 -22 -51 -19 -79 16 -146 22 -44 29 -73 34 -154 6
-79 12 -111 33 -151 41 -82 128 -146 216 -160 23 -4 44 -11 47 -16 13 -21 -9
-80 -42 -113 -82 -82 -289 -90 -364 -15 -12 12 -52 36 -89 52 -36 16 -83 46
-103 66 -28 26 -46 36 -70 35 -40 0 -73 27 -88 73 -10 29 -9 38 10 64 12 16
33 32 48 36 46 9 95 35 86 44 -5 4 -26 10 -47 13 -63 8 -76 28 -71 103 5 63 4
64 -27 83 -55 34 -181 62 -286 64 l-98 2 -3 41 c-2 33 2 47 22 69 20 21 23 31
16 46 -15 28 -12 66 10 109 27 53 58 72 110 68 37 -3 44 0 51 20 12 32 -28 72
-73 72 -43 0 -120 -53 -147 -101 -34 -60 -44 -64 -157 -64 l-103 0 -31 -35
c-18 -19 -40 -52 -51 -72 -11 -21 -23 -38 -28 -38 -5 0 -15 24 -22 53 -24 103
-68 154 -159 183 -179 59 -248 190 -190 358 43 125 90 173 153 155 15 -4 56
-30 91 -57 34 -27 81 -61 103 -75 26 -16 53 -47 73 -81 35 -61 56 -70 89 -35
15 17 17 27 10 52 -9 32 -23 47 -138 147 -35 30 -76 65 -90 78 -44 39 -84 60
-126 66 -24 4 -48 16 -60 29 -18 21 -55 26 -55 8 0 -4 -18 -27 -40 -52 -51
-55 -74 -98 -94 -176 -28 -107 -30 -189 -8 -273 11 -41 18 -77 16 -79 -6 -7
-81 68 -111 111 -22 33 -25 45 -20 91 9 91 131 376 209 491 51 75 92 157 108
215 15 57 51 110 95 140 30 20 44 23 88 18 68 -7 162 -51 192 -91 75 -99 95
-226 50 -323 -14 -32 -29 -76 -32 -99 -5 -37 -2 -44 20 -59 24 -15 28 -15 61
0 72 34 175 173 191 257 37 191 54 241 101 297 44 53 117 79 154 56z m1726
-656 c40 -16 122 -74 144 -99 3 -3 22 -19 43 -35 41 -31 70 -75 59 -92 -4 -6
-32 -18 -62 -27 -30 -8 -75 -31 -99 -51 -24 -19 -48 -35 -54 -35 -6 0 -30 11
-54 25 -55 33 -61 58 -33 144 30 94 26 113 -28 126 -41 10 -42 12 -25 26 15
13 52 37 60 39 1 0 23 -9 49 -21z m-176 -146 c-1 -28 -15 -53 -30 -53 -20 0
-32 23 -24 45 6 15 54 22 54 8z m-236 -153 c42 -28 76 -55 76 -60 0 -5 29 -22
65 -39 66 -32 103 -70 146 -153 22 -43 25 -113 6 -121 -8 -3 -37 17 -65 43
-40 38 -63 51 -105 60 -79 18 -114 4 -155 -63 -68 -113 -84 -228 -41 -292 47
-68 126 -84 207 -42 78 40 87 41 116 10 14 -15 26 -31 26 -35 0 -4 18 -26 40
-48 22 -22 40 -49 40 -59 0 -16 -34 -60 -98 -130 -56 -61 5 -114 132 -115 l71
-1 2 -43 c1 -25 19 -80 44 -135 40 -88 42 -97 47 -210 4 -103 2 -121 -13 -138
-22 -24 -51 -25 -64 -1 -5 9 -8 49 -7 87 2 39 -1 81 -5 95 -4 14 -12 43 -18
66 -8 30 -22 48 -55 72 -47 34 -79 42 -70 17 8 -19 -41 -32 -60 -16 -8 7 -17
28 -21 47 -9 50 -65 107 -141 145 -98 50 -111 73 -120 222 -8 132 -8 128 -29
143 -15 11 -22 11 -44 -2 -51 -30 -59 -40 -65 -79 -13 -80 -30 -61 -53 60 -9
45 -9 133 0 245 9 121 -25 254 -84 325 -42 51 -46 61 -26 68 25 8 47 -7 78
-54 27 -42 36 -49 63 -49 54 0 69 26 71 124 2 82 8 106 24 106 5 0 43 -23 85
-50z m735 -119 c14 -15 27 -41 29 -56 1 -15 22 -73 46 -129 55 -128 55 -128
44 -148 -13 -27 -30 -22 -86 22 -48 38 -51 44 -57 98 -11 93 -25 134 -61 181
-18 24 -31 48 -28 52 3 5 23 9 46 9 31 0 46 -6 67 -29z m-1207 -14 c47 -24 71
-45 96 -81 33 -50 52 -102 45 -123 -6 -15 -53 -31 -78 -26 -11 2 -76 5 -144 7
-123 3 -125 4 -149 31 -20 24 -23 36 -20 77 6 55 23 78 87 120 58 36 85 35
163 -5z m983 -12 c37 -26 51 -40 80 -79 28 -37 30 -44 30 -140 0 -88 -3 -106
-23 -137 -29 -48 -57 -54 -120 -28 -79 33 -87 73 -27 139 25 27 43 82 37 116
-2 12 -32 52 -68 90 -35 38 -64 71 -64 74 0 11 134 -20 155 -35z m-2790 -108
c39 -24 84 -47 100 -51 75 -18 95 -50 120 -197 33 -186 30 -201 -50 -235 -61
-25 -132 -81 -142 -112 -11 -31 -10 -112 1 -189 5 -30 4 -53 -1 -53 -13 0 -87
80 -111 120 -27 47 -152 385 -156 424 -6 62 29 88 54 40 25 -46 57 -55 129
-37 84 21 126 9 176 -53 32 -38 40 -43 47 -30 23 41 -76 174 -131 178 -14 0
-33 2 -41 3 -8 1 -34 -4 -57 -11 -78 -22 -104 25 -62 108 12 23 22 63 23 90 1
61 10 61 101 5z m2428 -90 c12 -13 37 -48 56 -79 22 -38 46 -62 75 -77 22 -12
64 -38 92 -59 29 -21 83 -49 122 -62 67 -23 71 -23 97 -6 14 9 35 37 45 60 12
28 26 45 41 49 32 8 85 -19 116 -60 22 -28 25 -40 20 -77 -6 -45 -40 -112 -67
-133 -27 -22 -83 -14 -165 22 -24 11 -72 24 -122 34 -2 1 -13 1 -24 1 -25 0
-102 76 -144 143 -16 25 -39 48 -50 50 -11 1 -41 -12 -67 -31 -60 -42 -100
-54 -138 -40 -38 13 -50 35 -50 89 0 64 21 119 61 161 41 44 70 48 102 15z
m-1907 -82 c23 -15 54 -73 54 -101 0 -8 -9 -23 -21 -35 -31 -31 -127 -21 -151
15 -17 25 -8 85 18 115 28 34 55 36 100 6z m1333 -29 c27 -15 62 -74 77 -130
9 -38 -17 -43 -98 -17 -39 13 -102 24 -142 26 -85 3 -112 14 -119 52 -8 40 16
71 55 75 107 10 200 8 227 -6z m1420 -263 c85 -57 113 -104 115 -191 1 -80
-20 -81 -76 -3 -24 33 -60 69 -81 81 -42 24 -63 52 -71 91 -4 26 17 69 34 69
4 0 40 -21 79 -47z m-1439 -18 c88 -3 85 -2 97 -28 17 -38 35 -137 29 -161 -7
-30 -72 -59 -133 -59 -51 0 -116 27 -144 59 -42 48 -78 155 -65 190 5 14 16
15 79 9 39 -5 101 -9 137 -10z m945 -145 c16 -18 16 -21 2 -44 -17 -25 -104
-53 -132 -42 -18 7 -19 35 -2 56 39 50 101 64 132 30z m226 -12 c42 -14 48
-23 47 -68 0 -39 61 -250 88 -301 30 -59 34 -86 15 -103 -27 -25 -67 -19 -104
14 -28 24 -43 53 -77 152 -23 67 -53 147 -67 178 -54 116 -15 167 98 128z
m202 -21 c19 -29 25 -44 30 -72 2 -16 11 -65 18 -107 14 -86 4 -132 -28 -126
-20 4 -103 199 -108 253 -5 47 20 78 54 70 14 -4 29 -12 34 -18z m174 -129 c6
-8 7 -25 1 -45 -14 -53 -30 -42 -42 30 -4 21 -1 27 13 27 10 0 23 -6 28 -12z
m-498 -94 c12 -15 21 -41 21 -59 0 -19 12 -50 29 -75 23 -34 27 -49 21 -71 -6
-21 -3 -35 16 -63 38 -56 29 -74 -19 -35 -15 11 -26 23 -25 27 4 13 -32 121
-67 202 -19 45 -35 86 -35 91 0 19 40 8 59 -17z m-205 -483 c16 -54 12 -82
-14 -121 -26 -38 -31 -61 -19 -76 18 -22 33 -17 53 19 22 38 64 85 88 98 23
13 48 1 41 -19 -8 -20 -141 -220 -163 -243 -34 -37 -106 -57 -127 -36 -2 2
-11 39 -20 81 l-17 78 27 48 c15 26 27 53 27 60 0 34 80 160 101 160 5 0 15
-22 23 -49z"/>
</g>
</svg>
